<?xml version="1.0" standalone="no"?>
<!DOCTYPE svg PUBLIC "-//W3C//DTD SVG 20010904//EN"
 "http://www.w3.org/TR/2001/REC-SVG-20010904/DTD/svg10.dtd">
<svg version="1.0" xmlns="http://www.w3.org/2000/svg"
 width="1680.000000pt" height="650.000000pt" viewBox="0 0 1680.000000 650.000000"
 preserveAspectRatio="xMidYMid meet">

<g transform="translate(0.000000,650.000000) scale(0.100000,-0.100000)"
fill="#000000" stroke="none">
<path d="M0 3250 l0 -3250 5373 1 c2954 0 5390 3 5412 7 35 6 40 11 43 36 2
16 -6 71 -18 122 -19 79 -25 94 -42 94 -15 0 -18 5 -13 19 4 14 0 23 -15 31
-11 6 -20 19 -20 29 0 10 -9 21 -20 24 -14 3 -20 14 -20 31 0 14 -3 26 -7 26
-5 0 -8 35 -8 78 0 64 -4 82 -23 109 -13 18 -20 37 -17 43 3 5 1 10 -5 10 -13
0 -76 61 -73 70 1 4 -8 13 -21 19 -12 7 -27 26 -33 42 -6 16 -19 29 -28 29
-12 0 -15 5 -11 16 4 10 -1 25 -11 36 -11 13 -16 32 -15 56 5 64 10 71 47 70
20 -1 32 -5 28 -11 -4 -6 2 -8 15 -5 12 4 20 2 16 -3 -3 -5 4 -9 15 -9 12 0
21 -5 21 -11 0 -6 7 -8 16 -5 12 4 15 2 10 -9 -3 -9 0 -15 8 -15 8 0 16 -4 18
-9 2 -5 41 -34 87 -65 89 -59 117 -66 191 -47 19 5 71 12 115 15 79 7 81 6
143 -31 34 -20 62 -42 62 -48 0 -36 165 -61 260 -40 48 10 109 42 143 73 20
19 36 25 62 24 55 -4 85 -3 159 4 112 11 238 90 304 190 12 18 12 18 7 -3 -5
-17 2 -32 27 -58 32 -34 37 -35 133 -44 126 -12 131 -17 138 -150 5 -106 37
-221 71 -259 11 -12 56 -43 100 -69 77 -44 81 -45 140 -39 175 20 159 21 185
-13 13 -16 46 -42 75 -57 42 -23 65 -27 132 -28 76 -1 82 1 112 29 18 16 32
36 32 42 0 15 21 37 69 73 52 40 87 73 98 95 24 44 25 140 4 241 -25 123 -36
301 -26 429 6 83 9 96 24 92 9 -3 81 -31 161 -62 217 -84 662 -235 693 -235 5
0 24 -7 43 -16 27 -13 32 -19 23 -30 -7 -8 -7 -14 -1 -14 5 0 15 7 23 16 13
16 32 14 86 -7 l28 -11 -25 -11 c-21 -9 -11 -12 70 -19 133 -12 392 -58 410
-73 8 -7 38 -16 65 -20 61 -8 86 -21 79 -38 -3 -9 10 -18 36 -27 22 -7 40 -16
40 -20 0 -4 11 -12 24 -18 14 -6 33 -23 42 -37 17 -26 16 -27 -7 -50 -13 -13
-89 -56 -169 -96 -128 -65 -179 -99 -180 -120 0 -12 34 -20 131 -29 54 -5 117
-14 141 -19 24 -5 75 -15 113 -21 39 -7 77 -18 85 -25 8 -6 30 -17 48 -25 27
-10 32 -17 32 -46 0 -18 -5 -45 -10 -60 -13 -34 -86 -117 -111 -126 -10 -4
-19 -14 -19 -23 0 -13 82 -15 740 -15 l740 0 0 515 0 514 -97 -5 c-86 -5 -417
-21 -513 -26 -48 -2 -298 17 -350 27 -14 3 -72 9 -130 15 -593 56 -1261 206
-1725 390 -143 56 -174 72 -168 86 3 8 10 14 15 14 6 0 8 -6 5 -13 -3 -7 3
-13 13 -13 39 0 2 25 -157 105 l-167 84 64 59 c41 37 58 58 47 58 -26 0 -21
16 19 54 24 23 34 41 30 52 -3 9 2 28 12 42 23 35 30 214 11 299 -7 32 -12 62
-10 67 1 4 -2 13 -8 20 -16 20 -46 209 -46 295 0 74 -2 85 -19 91 -16 5 -17 8
-4 12 9 4 18 25 22 56 3 27 9 52 13 56 10 10 33 79 33 101 0 18 -5 20 -46 16
-47 -3 -44 -21 4 -21 13 0 22 -6 22 -15 0 -11 -12 -15 -47 -16 l-48 -1 37 -12
c48 -15 47 -31 -2 -30 -47 1 -53 -12 -10 -23 44 -12 32 -28 -17 -25 -49 3 -58
-13 -13 -23 17 -4 30 -11 30 -16 0 -10 -7 -11 -65 -10 l-40 0 37 -17 c53 -24
47 -35 -17 -30 -30 3 -55 3 -55 2 0 -2 14 -10 30 -19 45 -23 36 -35 -22 -29
l-53 5 28 -18 c39 -26 33 -36 -18 -31 -25 3 -45 3 -45 1 0 -3 10 -13 23 -23
30 -25 18 -33 -31 -22 -48 11 -60 5 -32 -15 36 -25 24 -35 -32 -28 -51 6 -52
6 -31 -10 38 -27 28 -37 -29 -30 l-53 6 24 -21 c32 -28 20 -35 -37 -22 -56 12
-66 7 -32 -18 35 -26 18 -36 -37 -22 -48 13 -71 8 -40 -9 20 -11 23 -39 5 -39
-7 1 -30 7 -50 14 -43 16 -55 10 -32 -15 26 -29 8 -40 -37 -22 -44 17 -59 12
-39 -12 22 -27 -1 -38 -43 -20 -50 21 -60 20 -46 -6 17 -32 -2 -44 -39 -25
-43 22 -53 20 -46 -8 8 -34 -11 -41 -52 -17 -45 27 -48 26 -40 -4 8 -33 -13
-41 -53 -21 -16 9 -34 16 -39 16 -14 0 -1 -54 14 -63 21 -12 17 -27 -6 -27
-11 0 -20 7 -20 15 0 12 -66 55 -85 55 -15 0 -3 -57 15 -68 27 -16 25 -34 -2
-30 -14 2 -24 11 -26 23 -2 12 -19 27 -41 37 -49 23 -51 23 -51 -7 0 -31 -24
-33 -60 -5 -33 26 -36 25 -44 -10 -7 -37 -19 -38 -59 -4 l-30 25 -13 -30 c-15
-36 -23 -38 -57 -11 -29 23 -47 26 -47 6 0 -7 -7 -19 -15 -26 -13 -11 -21 -8
-46 16 -30 28 -31 28 -45 10 -8 -11 -14 -23 -14 -28 0 -17 -40 -7 -50 12 -15
27 -30 25 -57 -7 l-23 -28 -23 28 c-27 32 -43 34 -52 8 -3 -11 -12 -22 -20
-25 -15 -5 -45 18 -45 35 0 16 -23 10 -46 -12 -26 -24 -53 -19 -61 11 -7 26
-15 25 -43 -5 -30 -32 -48 -32 -60 0 -11 30 -15 31 -47 5 -34 -27 -51 -25 -59
5 -7 30 -25 32 -49 5 -25 -28 -44 -25 -59 10 l-12 30 -34 -25 c-36 -27 -60
-20 -60 16 0 24 -1 24 -44 -2 -40 -23 -56 -19 -56 17 0 29 0 29 -44 3 -40 -23
-56 -19 -56 17 l0 24 -40 -20 c-46 -24 -64 -18 -56 16 7 27 1 29 -34 9 -38
-22 -62 -19 -60 8 3 37 1 38 -40 17 -35 -18 -41 -19 -46 -5 -3 8 -4 22 0 30 7
19 -5 19 -49 1 -38 -16 -50 -8 -40 26 6 18 4 20 -16 14 -65 -18 -79 -19 -79
-3 0 9 4 19 10 22 27 17 5 22 -36 8 -51 -17 -64 -12 -45 18 17 28 13 29 -36
16 -49 -13 -63 -5 -40 21 23 26 14 31 -33 19 -46 -13 -60 -5 -37 21 24 26 22
28 -23 24 -44 -4 -49 1 -23 26 16 16 15 17 -15 20 -24 2 -32 8 -32 23 0 10 -4
19 -9 19 -5 0 -19 11 -32 25 -13 13 -34 25 -47 25 -16 0 -22 5 -20 18 2 14 -5
17 -40 17 -23 0 -42 2 -42 5 0 3 20 13 44 23 24 10 68 33 97 52 l54 34 26 -25
c15 -15 37 -24 56 -24 27 0 32 -4 38 -31 19 -85 314 -231 655 -323 171 -47
232 -34 304 64 26 34 46 68 46 75 0 7 -48 34 -107 60 -164 72 -237 112 -274
151 l-34 36 40 -7 c51 -8 143 -28 270 -57 97 -22 100 -24 122 -62 l22 -40 8
30 c15 54 7 176 -16 235 -36 94 -27 89 -201 99 -85 5 -207 14 -270 21 -75 7
-203 9 -366 5 l-252 -6 -7 58 c-8 69 -40 148 -69 167 -25 18 -48 20 -25 2 30
-23 52 -69 51 -104 -3 -77 -69 -137 -202 -184 -43 -16 -88 -37 -100 -49 -11
-11 -29 -20 -40 -20 -15 0 -20 -7 -20 -25 0 -21 -5 -25 -30 -25 -16 0 -30 4
-30 9 0 5 -39 13 -87 17 -72 7 -88 12 -91 27 -3 16 6 17 92 15 52 -1 98 0 101
3 3 3 11 27 19 52 13 44 13 49 -6 73 -16 20 -27 25 -47 21 -21 -5 -34 3 -73
45 -53 56 -56 64 -31 84 17 13 17 15 0 28 -14 11 -26 12 -48 4 -41 -14 -99
-71 -99 -96 0 -25 43 -79 70 -87 23 -7 26 -23 6 -31 -7 -3 -34 14 -60 37 -35
32 -46 49 -46 72 0 44 62 99 136 121 33 10 64 20 70 22 6 3 14 -4 17 -16 6
-25 26 -27 26 -2 -1 9 3 27 7 40 5 17 3 23 -7 22 -28 -4 -39 0 -39 15 0 8 -5
15 -11 15 -7 0 -9 -9 -6 -23 4 -12 2 -29 -3 -37 -8 -13 -13 -13 -43 3 -47 26
-80 14 -141 -50 -46 -48 -52 -59 -56 -109 -6 -66 -1 -78 51 -104 21 -11 39
-25 39 -31 0 -39 -109 8 -160 68 -28 34 -31 44 -27 86 3 31 12 56 27 72 l22
23 -58 79 c-32 43 -96 116 -143 162 -47 46 -75 78 -61 71 14 -7 22 -9 18 -5
-4 5 -2 15 5 24 11 14 10 14 -6 2 -15 -12 -17 -12 -11 3 4 10 1 16 -7 16 -7 0
-9 3 -6 6 4 4 35 -12 70 -35 67 -43 77 -47 77 -31 0 6 5 16 10 23 23 27 46 56
60 77 72 105 79 102 15 -8 -48 -81 -58 -138 -30 -162 13 -10 15 -9 15 8 0 41
79 158 224 330 83 100 136 128 136 72 0 -12 8 -20 23 -22 25 -3 24 24 11 -270
-9 -215 3 -257 41 -138 9 30 39 101 66 156 36 75 54 103 71 108 34 9 36 8 40
-16 2 -19 9 -23 42 -23 36 0 40 -3 48 -34 11 -42 5 -61 -22 -61 -13 0 -20 -7
-20 -19 0 -13 -8 -21 -22 -23 -13 -2 -23 -9 -23 -16 0 -8 -8 -19 -17 -26 -30
-22 -20 -35 32 -42 35 -5 54 -13 61 -25 6 -11 21 -19 37 -19 47 0 56 -12 39
-52 -11 -26 -12 -39 -4 -47 15 -15 37 -14 37 3 0 7 6 19 14 25 11 9 15 7 21
-11 7 -20 9 -17 14 19 4 29 17 54 39 78 37 38 57 39 42 0 -12 -31 13 -61 57
-70 43 -9 50 9 13 35 -38 27 -31 40 15 30 46 -10 56 -20 85 -76 l23 -47 -44
-38 c-24 -21 -47 -39 -51 -39 -5 0 -8 -4 -8 -10 0 -11 155 -12 257 -1 l62 6
-55 125 c-52 116 -54 125 -38 137 10 7 23 13 30 13 14 0 25 58 12 66 -5 3 -23
-4 -42 -15 -50 -31 -70 -28 -62 9 7 35 6 35 -56 13 -54 -19 -66 -14 -50 22 14
30 7 31 -48 9 -22 -9 -47 -14 -55 -10 -14 5 -14 8 1 31 19 30 17 30 -53 8 -38
-12 -53 -22 -53 -35 0 -20 -15 -24 -26 -6 -4 6 0 16 8 22 8 6 18 21 22 34 4
12 12 22 17 22 6 0 8 4 4 9 -3 6 -24 3 -50 -6 -25 -8 -53 -12 -62 -9 -14 6
-13 10 8 33 l24 26 -30 -7 c-83 -18 -95 -18 -95 -6 0 6 10 21 22 32 l23 19
-40 -6 c-22 -4 -50 -9 -62 -12 -30 -7 -30 13 0 38 22 18 22 18 -40 12 -67 -6
-81 4 -38 27 38 20 30 28 -18 19 -60 -12 -67 -11 -67 6 0 8 4 15 8 15 5 0 17
7 28 15 17 14 14 15 -38 9 -65 -7 -77 6 -28 31 17 9 30 18 30 20 0 3 -24 2
-54 -1 -64 -8 -83 9 -31 27 52 19 43 28 -21 22 -46 -5 -56 -3 -52 8 2 7 19 18
36 23 49 14 38 21 -24 18 -44 -3 -55 -1 -52 9 3 8 19 18 36 23 47 13 39 27
-14 24 -56 -4 -71 17 -20 26 58 11 53 26 -9 26 -63 0 -66 15 -5 25 56 9 50 25
-10 25 -60 0 -66 17 -10 26 56 9 58 20 5 27 -45 5 -46 4 -109 -62 -59 -61
-169 -185 -258 -290 -21 -25 -38 -40 -38 -35 0 6 5 15 12 22 6 6 8 15 3 19 -4
5 -10 2 -12 -4 -3 -7 -9 -13 -15 -13 -6 0 -5 6 2 15 7 9 19 14 27 11 10 -4 13
6 13 39 0 33 -4 45 -15 45 -18 0 -18 1 -4 37 6 15 11 41 11 57 -1 16 7 47 17
70 28 64 43 109 45 131 1 11 7 29 13 40 6 11 11 51 10 88 -2 54 1 67 13 67 11
0 12 3 3 8 -8 5 -3 15 18 31 16 13 36 39 45 57 9 19 21 31 27 27 6 -4 8 2 5
15 -5 16 -1 22 15 24 12 2 23 12 26 23 2 11 9 24 17 28 8 4 14 14 14 21 0 8 7
16 15 20 8 3 15 11 15 18 0 29 37 45 118 50 161 11 223 79 121 130 l-36 18 20
60 c12 37 25 60 34 60 8 0 17 9 20 21 4 14 8 17 13 9 9 -15 50 8 50 28 0 21
37 64 45 52 3 -6 11 -8 16 -4 5 3 7 10 4 15 -4 5 0 9 7 9 25 0 37 -38 38 -131
3 -119 19 -219 36 -219 20 0 66 66 84 121 21 60 17 126 -10 180 -11 21 -30 58
-42 82 -23 44 -39 155 -21 144 6 -4 9 -19 7 -34 -2 -16 -1 -20 2 -10 3 9 9 15
14 12 4 -3 6 5 2 17 -3 14 -2 19 6 14 7 -4 16 2 21 17 5 13 20 31 34 39 13 9
29 31 36 50 7 18 17 41 22 50 5 10 9 49 9 86 0 56 4 72 20 87 11 10 20 15 20
10 0 -4 6 -2 13 4 21 17 83 21 102 7 16 -12 15 -14 -9 -41 -23 -25 -26 -36
-26 -99 0 -88 25 -144 101 -229 59 -66 113 -98 172 -100 23 -1 44 -5 47 -9 13
-17 128 -19 204 -3 105 22 151 41 181 76 30 37 28 42 -65 199 -109 185 -172
225 -264 169 -43 -26 -83 -24 -128 7 -43 30 -49 58 -20 92 40 46 107 53 192
21 61 -23 36 -24 430 5 113 9 280 16 371 16 150 0 167 -2 186 -19 27 -25 38
-88 24 -137 -16 -58 -4 -240 19 -289 10 -22 21 -47 23 -56 7 -21 68 -31 106
-18 l28 10 7 132 c8 149 14 179 30 174 7 -2 14 -55 19 -143 5 -76 12 -143 17
-147 4 -5 1 -30 -6 -55 -37 -127 -53 -186 -49 -190 2 -2 13 1 24 8 26 13 41 6
41 -21 0 -23 17 -24 44 -4 30 23 66 19 66 -6 0 -18 4 -20 23 -14 56 17 70 18
79 2 7 -13 21 -16 70 -13 34 2 72 0 83 -4 12 -5 113 -11 225 -14 133 -4 207
-10 211 -18 4 -6 55 -13 126 -16 96 -4 122 -2 134 10 17 18 64 221 55 237 -11
17 -46 13 -46 -5 0 -14 -13 -15 -112 -9 -62 4 -140 8 -173 10 -162 9 -702 47
-712 50 -7 3 -13 14 -13 25 0 17 7 20 43 21 23 1 32 4 20 6 -38 7 -26 22 19
25 l43 3 7 50 c8 55 2 344 -8 370 -4 10 -13 14 -23 10 -9 -4 -38 -9 -66 -12
-33 -4 -66 -17 -99 -40 -26 -18 -51 -33 -55 -33 -4 0 -24 18 -45 39 -24 25
-51 42 -74 46 -62 11 -89 31 -96 68 -12 63 20 107 89 123 17 3 49 17 71 30 66
37 102 37 178 -1 36 -18 79 -38 95 -43 17 -6 41 -28 55 -50 29 -46 -18 -39
421 -67 322 -21 616 -50 730 -71 50 -10 137 -18 193 -18 96 -1 105 -3 123 -25
24 -30 24 -57 -1 -125 -12 -31 -18 -65 -15 -78 9 -34 -41 -97 -77 -98 -24 0
-78 47 -78 70 0 4 15 21 34 37 l35 28 -35 53 c-32 49 -38 53 -62 47 -47 -12
-92 -53 -92 -84 0 -21 -5 -28 -17 -27 -29 2 -44 -72 -33 -167 6 -45 10 -85 10
-89 0 -3 20 -14 45 -24 25 -9 45 -21 45 -25 0 -5 29 -9 64 -9 36 0 77 -5 91
-10 19 -7 40 -7 68 1 23 6 73 15 111 19 38 5 73 14 78 21 5 8 7 70 5 141 l-5
126 -42 61 c-45 64 -47 86 -6 97 20 5 120 -12 186 -31 18 -5 87 -18 371 -72
19 -3 39 4 68 25 52 38 91 47 134 32 54 -17 80 -52 85 -114 4 -48 1 -56 -24
-85 -39 -43 -99 -57 -154 -35 -32 13 -46 27 -71 75 -18 32 -38 59 -45 59 -26
0 -148 -32 -174 -45 -51 -26 -130 -109 -130 -137 0 -44 40 -91 109 -125 73
-35 215 -83 274 -91 22 -3 43 -13 50 -23 7 -11 19 -19 28 -19 9 0 36 -10 60
-23 61 -33 193 -69 264 -74 l60 -4 -35 18 c-19 9 -37 20 -40 23 -20 21 -163
90 -190 91 -14 0 27 13 90 29 63 16 135 37 160 47 41 18 53 18 135 7 50 -6
108 -19 130 -27 l40 -15 -33 -7 -33 -8 23 -24 23 -25 -29 8 c-25 6 -28 4 -23
-10 4 -11 1 -19 -11 -23 -9 -3 -26 -14 -37 -23 -11 -10 -50 -28 -87 -41 -42
-15 -64 -27 -59 -34 5 -5 6 -25 4 -43 l-5 -33 -72 3 -71 3 -3 39 -3 38 -72 -7
c-111 -10 -165 -25 -211 -55 -70 -48 -90 -76 -89 -121 2 -50 10 -60 84 -105
64 -39 73 -50 33 -40 -18 5 -24 3 -19 -5 5 -6 19 -9 37 -5 17 3 53 -1 82 -9
28 -8 109 -21 179 -30 82 -9 133 -20 143 -29 17 -18 9 -20 -171 -36 -430 -40
-906 -139 -1271 -264 -85 -29 -157 -49 -160 -45 -7 12 -81 12 -88 0 -3 -5 13
-11 35 -14 71 -9 67 -26 -8 -35 l-48 -6 43 -10 c56 -14 54 -30 -5 -36 -46 -6
-46 -6 -18 -14 51 -13 55 -15 55 -25 0 -6 -26 -11 -57 -13 l-58 -3 43 -13 c23
-7 42 -17 42 -22 0 -11 -6 -12 -70 -11 l-45 0 30 -14 c17 -8 36 -14 43 -15 8
0 12 -6 9 -12 -2 -9 -23 -12 -63 -11 l-59 3 34 -16 c19 -8 43 -13 53 -11 22 6
23 3 3 -17 -11 -11 -30 -13 -72 -10 l-58 4 45 -21 c25 -12 47 -26 48 -30 7
-17 21 -9 24 14 2 14 9 21 21 21 12 -1 17 5 17 21 0 15 8 26 20 30 11 3 20 14
20 24 0 10 7 24 15 31 8 7 15 21 15 31 0 10 5 21 10 24 6 3 10 14 10 24 0 13
21 28 68 49 351 161 857 291 1347 346 179 21 474 46 531 46 12 0 30 8 40 18
16 15 44 17 293 16 285 0 470 -11 771 -44 164 -19 427 -60 478 -75 l22 -7 0
1036 0 1036 -8400 0 -8400 0 0 -3250z m15625 1987 c9 -14 14 -42 12 -72 -2
-53 -14 -63 -61 -51 -32 8 -63 88 -47 122 15 33 74 34 96 1z m-1151 -73 c19
-18 19 -20 6 -45 -15 -28 -64 -25 -83 5 -14 21 -14 25 1 40 21 20 56 21 76 0z
m1142 -106 c5 -7 9 -24 9 -37 0 -32 -51 -47 -101 -31 -39 13 -46 40 -10 40 15
0 26 7 29 20 6 23 59 28 73 8z m-5988 -170 c-2 -17 -10 -23 -28 -23 -18 0 -26
6 -28 23 -3 19 1 22 28 22 27 0 31 -3 28 -22z m6755 -61 c15 -10 16 -17 6 -45
-11 -32 -13 -33 -58 -30 -39 3 -48 7 -59 31 -21 43 -10 57 46 57 26 0 56 -6
65 -13z m-1183 -135 c-8 -3 -21 -11 -28 -19 -24 -23 -32 -14 -9 10 12 13 29
21 36 18 13 -4 13 -5 1 -9z m-85 -62 c-3 -5 -14 -10 -23 -9 -14 0 -13 2 3 9
27 11 27 11 20 0z m75 -61 c0 -14 -29 -17 -40 -4 -8 10 -5 13 15 11 14 0 25
-4 25 -7z m-6002 -82 c2 -11 -3 -17 -15 -17 -26 0 -47 16 -39 29 10 16 50 7
54 -12z m-181 -839 c-3 -8 -6 -5 -6 6 -1 11 2 17 5 13 3 -3 4 -12 1 -19z m452
-614 c-14 -18 -24 -11 -15 11 3 9 11 13 16 10 8 -5 7 -11 -1 -21z m1528 -70
c-3 -3 -12 -4 -19 -1 -8 3 -5 6 6 6 11 1 17 -2 13 -5z m-915 -44 c-25 -21 -83
-40 -117 -39 -11 0 14 13 55 29 90 34 91 35 62 10z m458 12 c53 -7 56 -9 77
-52 12 -24 19 -48 15 -52 -10 -10 -352 25 -354 36 0 5 11 24 26 42 26 34 28
34 104 33 42 -1 102 -4 132 -7z m-440 -55 c-23 -21 -119 -57 -125 -47 -3 4 23
19 57 33 73 29 88 32 68 14z m-143 -44 c4 -10 11 -21 17 -25 14 -9 7 -15 -29
-23 -21 -5 -26 -4 -16 3 12 8 10 11 -6 14 -17 2 -19 7 -12 26 10 26 37 29 46
5z m-160 -58 c3 -9 -2 -22 -12 -29 -10 -7 -15 -18 -11 -24 11 -18 -55 -15 -68
3 -6 8 -35 19 -65 25 -61 11 -66 14 -56 29 4 7 46 11 106 11 81 0 101 -3 106
-15z m-264 -84 c18 -18 -85 -233 -148 -306 -16 -18 -22 -22 -16 -9 6 13 6 25
-1 35 -8 11 -9 11 -4 -3 3 -10 2 -18 -3 -18 -5 0 -11 13 -14 29 -4 21 3 47 25
93 16 34 40 94 52 131 l21 69 40 -7 c22 -3 44 -10 48 -14z m3912 -173 c-1 -13
1 -27 4 -33 14 -20 6 -40 -16 -43 -30 -4 -29 -16 3 -37 34 -22 21 -33 -41 -37
l-50 -3 43 -24 c23 -14 42 -29 42 -34 0 -6 -28 -8 -70 -4 -38 3 -70 2 -70 -2
0 -5 19 -21 43 -37 l42 -29 -28 -3 c-15 -2 -51 1 -79 7 -28 6 -54 9 -57 6 -3
-4 12 -22 34 -40 l40 -34 -37 -1 c-29 0 -41 6 -56 28 -24 34 -92 157 -92 165
0 4 16 7 35 7 29 0 35 4 35 21 0 19 4 20 34 15 31 -6 35 -4 38 16 2 18 9 23
33 23 24 0 31 5 33 23 3 20 8 22 33 17 26 -6 29 -4 29 20 0 24 3 26 29 20 17
-3 32 -2 36 4 9 16 12 13 10 -11z m-3125 -149 c0 -5 8 -13 18 -16 9 -4 53 -30
97 -58 94 -62 176 -104 263 -135 56 -20 75 -22 168 -17 83 5 110 10 133 26 39
28 47 26 55 -10 l6 -31 35 22 c42 26 65 21 65 -15 0 -14 5 -25 10 -25 6 0 10
-8 10 -18 0 -28 40 -60 106 -85 67 -26 68 -30 38 -134 -19 -68 -54 -70 -54 -3
0 34 -20 33 -72 -3 -60 -43 -78 -39 -78 14 0 47 -10 49 -70 8 -59 -40 -76 -35
-72 19 1 24 -2 42 -8 42 -6 0 -34 -13 -63 -30 -72 -40 -91 -27 -62 43 10 25
-16 22 -75 -8 -27 -14 -56 -22 -64 -19 -19 7 -19 12 -1 44 27 48 17 51 -61 19
-29 -12 -60 -19 -69 -15 -16 6 -16 8 -1 29 43 59 35 64 -48 35 -80 -28 -101
-18 -62 29 14 17 23 33 20 36 -3 3 -34 -3 -68 -13 -83 -24 -105 -12 -57 30 19
16 32 32 29 36 -4 3 -37 -1 -74 -9 -37 -9 -71 -14 -76 -11 -16 10 -8 23 28 44
48 30 32 47 -30 31 -90 -22 -111 -9 -51 32 40 27 36 37 -12 37 -69 0 -27 58
60 80 62 17 87 16 87 -1z m-415 -118 c7 -12 -12 -24 -25 -16 -11 7 -4 25 10
25 5 0 11 -4 15 -9z m2780 -31 c3 -5 -1 -10 -9 -10 -9 0 -16 5 -16 10 0 6 4
10 9 10 6 0 13 -4 16 -10z m-278 -73 c-2 -7 -16 -13 -30 -15 -21 -3 -27 1 -27
17 0 10 6 21 13 24 17 6 49 -12 44 -26z m801 -4 c20 -31 181 -313 231 -407 19
-35 31 -74 31 -96 0 -51 -37 -116 -88 -153 -53 -39 -69 -29 -52 32 7 26 8 69
4 112 -4 48 -3 73 5 83 16 19 -2 22 -204 36 -82 6 -226 17 -319 25 -93 8 -171
13 -173 11 -7 -6 72 -15 361 -37 323 -26 329 -27 261 -86 -26 -23 -67 -42
-125 -60 -47 -14 -91 -33 -98 -42 -7 -9 -19 -24 -28 -34 -8 -10 -17 -31 -21
-47 -4 -25 0 -35 31 -62 41 -36 45 -63 16 -101 -11 -14 -20 -34 -20 -45 0 -11
-11 -27 -25 -36 -57 -37 -165 -4 -165 51 -1 16 -7 39 -14 52 -18 33 -11 49 37
92 45 39 46 58 5 119 -17 25 -42 41 -95 63 -86 34 -153 92 -153 130 0 17 -5
27 -15 27 -17 0 -55 -56 -55 -80 0 -8 9 0 20 18 11 18 24 31 29 28 5 -3 8 -45
8 -94 -1 -76 2 -92 21 -119 61 -86 -25 -84 -112 3 -51 52 -70 127 -46 189 6
15 27 47 47 71 29 36 37 55 40 97 8 97 27 121 75 96 18 -10 24 -8 39 12 16 21
21 23 48 12 28 -10 32 -9 50 15 17 24 21 25 44 13 28 -15 47 -8 47 16 0 13 8
14 40 9 33 -5 41 -3 51 15 8 17 17 20 40 15 22 -4 31 -1 39 14 7 14 21 20 43
20 22 0 36 7 45 21 10 15 20 19 38 15 14 -4 24 -2 24 4 0 19 19 10 38 -17z
m-905 -1 c21 -23 15 -31 -18 -24 -28 5 -39 17 -30 32 10 15 30 12 48 -8z
m-1983 -96 c0 -3 -17 -21 -37 -40 -37 -34 -93 -63 -93 -47 0 9 46 52 80 74 23
16 50 23 50 13z m1510 -95 c3 -3 33 -20 67 -36 60 -29 63 -32 63 -66 0 -22 -7
-42 -16 -50 -15 -12 -21 -8 -53 29 -20 23 -42 42 -49 42 -6 0 -21 -18 -32 -40
-26 -51 -54 -53 -77 -5 -27 57 -41 54 -93 -15 -24 -32 -48 -20 -67 35 -16 48
-2 102 31 116 22 9 217 1 226 -10z m-2040 -131 c0 -5 -2 -10 -4 -10 -3 0 -8 5
-11 10 -3 6 -1 10 4 10 6 0 11 -4 11 -10z m1710 -253 c25 -7 55 -19 68 -28 23
-17 23 -17 -25 -21 -26 -2 -94 -2 -151 0 -94 4 -104 7 -112 26 -4 13 -3 24 4
28 18 12 166 8 216 -5z m-1670 -39 c0 -4 -18 -8 -41 -8 -22 0 -38 4 -35 9 7
11 76 10 76 -1z"/>
<path d="M13360 1663 c0 -10 5 -25 10 -33 8 -12 10 -9 10 12 0 15 -4 30 -10
33 -5 3 -10 -2 -10 -12z"/>
<path d="M13445 4959 c-168 -25 -299 -101 -311 -180 -10 -67 50 -126 176 -177
139 -55 255 -68 278 -32 13 21 61 28 63 10 1 -5 2 -16 3 -22 2 -20 178 -16
251 6 135 40 199 82 221 144 10 31 10 43 -2 71 -8 18 -14 34 -14 36 0 6 -112
77 -145 91 -56 24 -134 44 -172 44 -26 0 -33 -5 -42 -30 -10 -29 -12 -30 -73
-29 -101 2 -122 9 -128 44 -6 35 -17 37 -105 24z"/>
<path d="M11100 4932 c-27 -22 -20 -68 8 -57 54 23 117 27 347 22 251 -6 407
-22 610 -65 75 -16 80 -19 85 -46 6 -33 41 -62 85 -71 62 -13 125 -17 142 -10
10 4 29 7 43 6 32 -2 65 21 57 42 -8 21 -148 74 -306 113 -100 26 -172 37
-280 44 -80 5 -213 15 -296 21 -82 7 -210 9 -282 6 -76 -3 -135 -1 -139 4 -9
15 -50 10 -74 -9z"/>
<path d="M10290 4890 c0 -5 5 -10 11 -10 5 0 7 5 4 10 -3 6 -8 10 -11 10 -2 0
-4 -4 -4 -10z"/>
<path d="M10540 4855 c-151 -43 -212 -65 -314 -113 -164 -77 -307 -186 -368
-281 -40 -64 -36 -88 18 -105 17 -5 41 14 130 105 152 154 238 222 316 248 77
25 230 43 307 36 109 -11 266 -38 280 -49 8 -6 27 -38 43 -71 l30 -60 -5 43
c-8 66 -52 146 -119 212 l-60 61 -58 -7 c-38 -4 -60 -3 -64 5 -9 14 -2 15
-136 -24z m266 -50 c42 -27 29 -38 -35 -31 -35 4 -61 3 -63 -3 -7 -19 -222
-18 -216 2 3 6 20 15 39 19 19 4 61 14 94 22 69 17 147 13 181 -9z"/>
<path d="M10200 4860 c0 -5 5 -10 10 -10 6 0 10 5 10 10 0 6 -4 10 -10 10 -5
0 -10 -4 -10 -10z"/>
<path d="M10110 4830 c0 -5 7 -10 16 -10 8 0 12 5 9 10 -3 6 -10 10 -16 10 -5
0 -9 -4 -9 -10z"/>
<path d="M10030 4795 c0 -8 7 -15 15 -15 8 0 15 4 15 9 0 5 -7 11 -15 15 -9 3
-15 0 -15 -9z"/>
<path d="M12750 4769 c0 -5 5 -7 10 -4 6 3 10 8 10 11 0 2 -4 4 -10 4 -5 0
-10 -5 -10 -11z"/>
<path d="M9950 4760 c0 -13 28 -25 38 -16 3 4 0 11 -8 16 -20 13 -30 12 -30 0z"/>
<path d="M12830 4740 c-13 -8 -12 -10 3 -10 9 0 17 5 17 10 0 12 -1 12 -20 0z"/>
<path d="M9882 4718 c3 -7 15 -15 28 -16 21 -3 22 -2 11 12 -16 19 -44 21 -39
4z"/>
<path d="M11230 4704 c44 -54 63 -64 115 -58 105 12 275 -34 330 -89 l29 -30
126 17 c144 19 253 43 205 45 -16 1 -43 8 -59 16 -40 21 -61 26 -182 38 -23 3
-46 7 -50 9 -5 3 -38 8 -74 12 -117 12 -394 47 -425 53 -28 5 -29 4 -15 -13z"/>
<path d="M12890 4700 c-12 -8 -11 -10 8 -10 12 0 22 5 22 10 0 13 -11 13 -30
0z"/>
<path d="M9812 4678 c3 -7 18 -14 34 -16 28 -2 28 -2 10 13 -24 18 -49 20 -44
3z"/>
<path d="M12945 4650 c-3 -5 1 -10 9 -10 8 0 18 5 21 10 3 6 -1 10 -9 10 -8 0
-18 -4 -21 -10z"/>
<path d="M9750 4636 c0 -11 10 -16 32 -16 34 0 29 13 -9 25 -17 5 -23 2 -23
-9z"/>
<path d="M10478 4623 c6 -2 18 -2 25 0 6 3 1 5 -13 5 -14 0 -19 -2 -12 -5z"/>
<path d="M10620 4620 c19 -5 45 -20 57 -35 21 -24 23 -24 23 -6 0 25 -47 51
-87 50 -26 -1 -26 -2 7 -9z"/>
<path d="M10422 4604 c-22 -15 -30 -44 -12 -44 6 0 10 6 10 14 0 7 10 21 23
29 12 9 17 16 12 16 -6 1 -21 -6 -33 -15z"/>
<path d="M13005 4610 c-18 -8 -17 -9 8 -9 15 -1 27 4 27 9 0 12 -8 12 -35 0z"/>
<path d="M9694 4599 c-3 -5 -2 -13 1 -19 7 -12 65 -14 65 -2 0 12 -59 31 -66
21z"/>
<path d="M12509 4580 c-209 -56 -421 -156 -533 -252 l-47 -41 22 -23 c54 -58
230 -158 359 -204 36 -13 69 -27 75 -32 15 -13 25 -9 25 12 0 28 35 43 111 44
71 2 96 14 101 49 3 20 10 22 96 27 73 4 96 9 106 22 7 10 23 62 35 118 13 55
27 100 31 100 12 0 58 -98 66 -137 4 -18 10 -30 15 -27 11 6 1 73 -17 127 -37
106 -194 271 -227 238 -14 -14 -77 -15 -77 -1 0 15 -24 11 -141 -20z m292 -78
c37 -34 39 -40 30 -65 -7 -16 -18 -27 -30 -27 -29 0 -51 11 -51 25 0 7 -10 19
-21 27 -18 11 -20 20 -14 46 9 43 35 42 86 -6z m-349 -63 c124 -19 153 -30
153 -59 0 -46 -30 -52 -245 -46 -198 4 -245 10 -234 28 4 6 43 28 88 49 89 42
120 46 238 28z"/>
<path d="M11275 4576 c-72 -21 -104 -66 -69 -101 40 -40 77 -50 180 -49 86 0
106 3 136 22 56 35 63 47 44 77 -9 13 -30 32 -47 40 -42 22 -181 29 -244 11z
m119 -99 c-8 -21 -23 -22 -31 -1 -7 18 17 38 30 25 4 -4 5 -15 1 -24z"/>
<path d="M13050 4560 c-12 -8 -11 -10 7 -10 12 0 25 5 28 10 8 13 -15 13 -35
0z"/>
<path d="M9652 4544 c4 -21 30 -29 56 -19 15 5 15 7 2 14 -8 5 -26 12 -38 16
-20 6 -23 4 -20 -11z"/>
<path d="M13103 4520 c-32 -13 -29 -17 7 -12 16 2 27 8 24 13 -3 5 -6 9 -7 8
-1 0 -12 -4 -24 -9z"/>
<path d="M9600 4497 c0 -15 56 -30 73 -20 13 8 -5 20 -40 28 -26 5 -33 3 -33
-8z"/>
<path d="M11056 4482 c-8 -14 0 -107 12 -129 7 -12 12 -50 12 -85 0 -68 -3
-64 76 -109 18 -10 50 -30 71 -43 44 -30 88 -26 78 5 -4 11 -3 19 2 19 4 0 15
5 23 10 13 9 11 13 -10 30 -25 20 -25 20 -5 33 11 6 29 15 40 18 23 6 85 -16
85 -31 0 -14 -35 -30 -67 -31 -15 0 -21 -3 -13 -6 48 -15 59 -25 50 -48 -11
-29 5 -93 25 -97 8 -2 -20 -26 -63 -55 -170 -114 -275 -226 -311 -333 -10 -30
-9 -36 8 -54 27 -26 141 -37 141 -13 0 9 26 36 58 60 92 71 92 71 143 30 85
-68 84 -68 119 -43 17 12 48 24 70 27 31 4 41 11 51 34 6 16 18 29 26 29 11 0
13 11 11 43 l-3 42 -57 3 c-36 2 -58 -1 -58 -8 0 -5 8 -10 18 -10 19 0 42 -18
42 -32 0 -12 -49 -10 -86 4 -28 10 -33 17 -39 56 -4 24 -5 45 -3 47 2 2 21 5
43 7 30 2 40 -1 40 -12 0 -24 77 -21 83 4 5 18 13 19 151 12 80 -3 205 -13
276 -21 137 -17 361 -57 372 -68 3 -4 -2 -16 -12 -27 -19 -21 -19 -21 8 -11
102 39 111 65 38 104 -102 56 -375 141 -486 152 -27 3 -142 12 -255 20 -174
14 -207 19 -222 35 -14 15 -15 19 -3 24 9 3 12 12 8 22 -5 13 -3 15 7 9 9 -5
11 -4 6 4 -10 16 9 38 42 46 15 3 41 16 59 28 31 21 32 23 26 82 -4 46 -1 69
11 93 9 18 16 55 16 87 l0 57 -32 -33 c-46 -46 -101 -67 -212 -81 -76 -9 -114
-9 -182 0 -108 16 -156 35 -193 78 -17 18 -32 30 -35 26z"/>
<path d="M13133 4473 c-37 -7 -26 -19 12 -15 19 2 35 8 35 13 0 9 -8 10 -47 2z"/>
<path d="M9572 4444 c3 -18 9 -19 65 -15 25 2 3 18 -35 26 -29 6 -33 5 -30
-11z"/>
<path d="M10830 4439 c-79 -13 -91 -20 -50 -30 40 -10 141 7 167 27 16 12 13
13 -22 13 -22 -1 -65 -5 -95 -10z"/>
<path d="M13160 4421 l-25 -7 28 -7 c29 -8 47 -3 47 14 0 10 -14 10 -50 0z"/>
<path d="M9540 4396 c0 -22 16 -28 56 -20 42 8 34 19 -18 28 -30 5 -38 4 -38
-8z"/>
<path d="M10335 4393 c-55 -7 -169 -34 -184 -44 -11 -6 25 -9 109 -6 108 3
131 6 168 26 23 13 42 25 42 27 0 5 -91 3 -135 -3z"/>
<path d="M13187 4373 c-35 -6 -25 -23 14 -23 19 0 29 5 29 15 0 8 -3 14 -7 14
-5 -1 -20 -4 -36 -6z"/>
<path d="M9523 4343 c-8 -21 2 -26 46 -18 48 8 46 21 -5 27 -24 3 -38 0 -41
-9z"/>
<path d="M13202 4323 c-42 -5 -32 -23 14 -23 24 0 34 5 34 15 0 8 -3 14 -7 13
-5 0 -23 -3 -41 -5z"/>
<path d="M9500 4285 c0 -16 52 -21 85 -9 25 10 -2 24 -47 24 -27 0 -38 -4 -38
-15z"/>
<path d="M13180 4260 c0 -5 11 -10 24 -10 13 0 31 -3 40 -6 11 -4 16 -1 16 10
0 12 -10 16 -40 16 -22 0 -40 -4 -40 -10z"/>
<path d="M9500 4232 c0 -18 4 -20 38 -15 47 7 77 22 46 23 -12 0 -36 3 -53 6
-27 6 -31 4 -31 -14z"/>
<path d="M9822 4194 c-22 -15 -28 -39 -14 -61 6 -10 15 -10 40 -1 43 17 49 6
18 -35 l-26 -33 53 -65 c30 -35 72 -77 96 -93 l42 -29 40 21 c23 12 60 25 83
29 22 3 44 11 48 17 13 19 28 -44 28 -114 0 -38 3 -71 8 -73 4 -3 30 -8 57
-12 41 -5 48 -4 38 6 -7 7 -13 19 -13 27 0 14 15 13 74 -5 15 -4 12 3 -13 33
-31 37 -142 270 -157 327 l-6 27 61 -2 61 -2 0 -40 c0 -23 9 -55 19 -72 23
-38 112 -84 175 -91 38 -5 45 -3 51 16 3 11 3 25 0 31 -4 6 13 10 44 10 l51 0
0 -36 0 -37 60 7 c58 7 60 6 60 -16 0 -19 6 -23 35 -25 19 -1 48 -8 65 -16 32
-16 42 -11 54 29 5 18 1 24 -25 33 -39 13 -52 14 -45 2 8 -13 -4 -41 -18 -41
-12 1 -61 39 -55 44 2 1 34 17 72 34 53 24 67 28 67 16 0 -8 5 -12 10 -9 10 6
8 23 -11 101 l-11 41 -76 18 c-105 23 -334 37 -670 40 -155 1 -285 5 -289 9
-12 11 -58 6 -81 -10z m323 -44 c4 -6 2 -16 -3 -23 -5 -7 -8 -20 -7 -29 2 -11
-3 -18 -11 -18 -9 0 -12 5 -9 10 4 6 1 17 -5 25 -7 8 -10 22 -6 30 6 17 32 20
41 5z m529 -56 c14 -36 7 -44 -39 -44 -47 0 -63 14 -51 45 8 21 82 20 90 -1z"/>
<path d="M11652 4103 c-12 -15 -20 -28 -18 -31 8 -8 41 23 44 41 4 22 2 21
-26 -10z"/>
<path d="M12827 3996 c-79 -45 -93 -61 -47 -52 39 7 76 31 98 64 18 28 18 28
-51 -12z"/>
<path d="M9205 3899 c-4 -6 -5 -12 -2 -15 2 -3 7 2 10 11 7 17 1 20 -8 4z"/>
<path d="M12960 3859 c0 -4 14 -12 30 -19 50 -21 36 -33 -30 -27 -66 7 -77 -1
-30 -21 43 -19 27 -35 -27 -27 -25 4 -52 9 -59 12 -25 9 -15 -13 11 -25 47
-22 30 -35 -37 -28 -60 6 -62 5 -40 -10 12 -9 22 -23 22 -31 0 -11 -6 -14 -22
-9 -13 3 -41 9 -63 12 l-40 5 23 -19 c45 -41 24 -52 -48 -27 -50 18 -60 13
-35 -15 30 -33 7 -44 -49 -25 -54 19 -63 16 -45 -14 20 -31 3 -37 -52 -17 -52
18 -72 15 -51 -6 36 -36 -4 -49 -63 -21 -19 9 -37 14 -40 11 -12 -12 30 -71
61 -86 19 -8 34 -19 34 -22 0 -10 -394 -140 -423 -140 -4 0 -7 9 -7 19 0 11
-6 21 -12 24 -10 4 -10 7 0 18 6 7 12 21 12 31 0 28 26 32 59 9 38 -27 51 -26
51 3 0 19 -12 31 -55 56 -32 18 -55 39 -55 48 0 12 -8 8 -28 -15 -60 -72 -240
-98 -372 -53 -36 12 -74 33 -87 46 -12 13 -25 24 -28 24 -3 0 -5 -28 -5 -62
l0 -61 -24 22 -24 22 -31 -33 -32 -33 -30 35 -29 35 -30 -32 c-33 -35 -51 -35
-68 3 -14 30 -24 30 -58 -1 -31 -29 -44 -28 -60 3 -17 35 -21 36 -57 8 -34
-26 -67 -27 -67 -2 0 6 -4 17 -9 25 -7 11 -14 10 -39 -8 -17 -11 -35 -21 -41
-21 -6 0 -11 -13 -11 -30 0 -35 8 -37 44 -9 14 11 34 19 44 17 47 -10 -19
-174 -81 -199 -17 -7 -33 -13 -35 -15 -2 -1 8 -14 22 -29 25 -26 27 -27 50
-11 33 21 49 20 71 -4 22 -24 38 -25 55 -5 17 21 44 19 65 -5 22 -24 38 -25
55 -5 17 21 44 19 65 -5 10 -11 23 -20 30 -20 7 0 20 9 30 20 10 11 23 20 30
20 7 0 20 -9 30 -20 24 -27 69 -28 62 -1 -2 10 -1 25 4 32 8 11 12 10 24 -6
44 -58 62 -74 83 -75 15 0 22 -6 22 -20 0 -18 -3 -19 -21 -10 -37 21 -45 3 -8
-19 27 -16 36 -27 32 -41 -3 -12 5 -29 21 -45 14 -14 26 -30 26 -35 0 -16 41
-32 67 -25 19 4 31 0 45 -15 12 -13 31 -21 46 -20 44 3 52 1 52 -16 0 -9 5
-12 13 -8 6 4 -32 -38 -85 -94 -78 -82 -105 -119 -139 -188 -54 -111 -59 -175
-16 -208 25 -19 43 -21 160 -23 l132 -3 -90 46 c-81 42 -87 47 -71 60 10 7 37
13 60 12 54 -1 104 10 139 31 28 15 57 67 57 99 0 9 9 35 21 59 l21 43 66 -1
c37 0 92 -4 122 -9 86 -12 491 -106 611 -142 32 -9 44 -7 95 16 33 15 69 34
82 42 21 14 22 15 5 41 l-17 26 29 -8 c17 -4 41 -9 55 -9 21 -1 25 3 25 28 0
25 -7 33 -45 52 -144 71 -393 134 -533 134 -78 0 -116 -11 -85 -23 20 -8 -29
-7 -132 3 -52 5 -133 10 -180 11 -103 3 -120 7 -120 28 0 9 -7 24 -14 34 -12
16 -18 17 -37 7 -21 -12 -21 -11 -14 16 4 16 9 45 10 64 3 39 35 58 35 21 0
-12 5 -21 10 -21 6 0 10 10 10 23 0 12 7 33 16 45 8 12 10 22 5 22 -14 0 -14
71 0 90 8 11 12 12 16 3 9 -24 23 -13 23 18 0 41 32 36 40 -6 l6 -30 16 31
c28 51 42 58 79 38 32 -16 33 -16 54 10 11 14 27 26 35 26 22 -1 53 -27 46
-39 -9 -14 27 -45 119 -102 114 -71 144 -78 202 -50 53 25 57 24 105 -52 41
-65 42 -66 86 -56 20 4 38 6 41 3 2 -2 -1 -4 -7 -4 -25 0 -10 -16 31 -34 53
-23 232 -64 313 -73 91 -9 128 7 164 70 74 128 79 260 16 391 -40 83 -154 213
-233 265 -43 28 -48 30 -64 15 -25 -22 -74 -15 -74 11 0 15 8 21 34 23 51 5
121 82 121 133 0 19 -4 21 -30 15 -27 -5 -32 -2 -41 21 -5 15 -9 41 -7 58 3
30 3 30 -54 35 -32 3 -58 2 -58 -1z m90 -69 c0 -5 -7 -10 -15 -10 -8 0 -15 5
-15 10 0 6 7 10 15 10 8 0 15 -4 15 -10z m-584 -285 c16 -13 17 -16 4 -25 -25
-17 -40 -11 -40 15 0 29 8 31 36 10z m644 -20 c73 -38 240 -225 240 -268 0 -8
-14 -20 -32 -26 -38 -14 -30 -24 20 -25 31 -1 38 -5 40 -23 2 -13 -1 -23 -7
-23 -6 0 -11 -4 -11 -10 0 -5 6 -10 14 -10 7 0 16 -9 19 -20 6 -23 -10 -90
-21 -90 -27 0 -129 104 -135 139 -9 48 3 89 29 95 17 5 24 13 24 32 0 21 -3
23 -19 15 -14 -8 -20 -7 -25 4 -3 8 -12 15 -20 15 -9 0 -16 11 -18 28 -3 26
-5 27 -50 25 -47 -3 -48 -2 -48 27 0 25 -4 30 -24 30 -14 0 -36 -4 -50 -10
-23 -8 -26 -7 -26 14 0 34 -10 38 -31 12 -24 -30 -24 -36 1 -36 13 0 20 -7 20
-18 0 -20 -26 -79 -39 -86 -4 -3 -48 14 -97 37 -49 23 -108 50 -131 59 -24 9
-43 21 -43 26 0 10 80 48 148 68 38 12 58 5 32 -11 -15 -9 -12 -25 5 -25 9 0
15 9 15 24 0 51 143 71 220 31z m-1788 -130 c6 -14 19 -25 28 -25 9 0 22 11
28 25 16 35 46 32 71 -9 43 -69 21 -91 -87 -88 -43 1 -96 5 -119 8 -40 6 -41
6 -22 25 10 10 19 24 19 29 0 22 33 60 51 60 11 0 24 -11 31 -25z m1294 -30
c10 -8 30 -15 43 -15 13 0 40 -9 60 -19 20 -10 63 -31 96 -47 72 -33 110 -60
95 -69 -5 -3 -10 -1 -10 6 0 11 -34 9 -80 -4 -8 -2 -12 -2 -7 0 13 8 7 25 -7
20 -8 -3 -19 0 -25 7 -10 11 -89 25 -176 32 -11 1 -29 2 -40 3 -11 1 -31 11
-45 22 l-25 21 35 29 c39 33 57 36 86 14z m-1072 -4 c3 -5 -4 -11 -15 -14 -18
-5 -20 -10 -14 -51 8 -49 0 -96 -15 -96 -5 0 -8 18 -7 39 0 22 4 38 8 36 3 -3
3 14 -1 36 -6 31 -4 41 9 49 20 12 28 12 35 1z m381 -9 c6 -4 10 -40 10 -79 0
-88 -19 -94 -22 -7 -1 39 -7 62 -17 70 -16 11 -11 24 8 24 6 0 16 -4 21 -8z
m-8 -214 c-3 -8 -6 -5 -6 6 -1 11 2 17 5 13 3 -3 4 -12 1 -19z m808 2 c4 -6 1
-17 -5 -26 -11 -12 -14 -12 -25 3 -7 10 -11 21 -9 25 7 11 32 10 39 -2z m396
-26 c19 -23 -6 -36 -59 -31 -81 8 -83 47 -3 47 32 0 53 -5 62 -16z m-1434 -25
c8 -8 20 -9 41 -1 35 12 42 8 42 -24 0 -12 6 -24 13 -27 25 -9 -9 -25 -65 -29
-42 -3 -62 0 -79 13 l-22 17 21 7 c12 3 20 11 16 16 -7 12 2 39 14 39 4 0 13
-5 19 -11z m246 -4 c0 -6 -7 -11 -16 -13 -12 -3 -15 1 -11 13 7 17 25 17 27 0z"/>
<path d="M10730 3774 c-52 -19 -129 -51 -170 -71 l-75 -36 55 -18 c61 -20 155
-24 194 -9 30 11 99 72 128 112 20 28 20 30 2 43 -24 19 -23 19 -134 -21z"/>
<path d="M13195 3689 c-4 -6 -5 -13 -2 -16 7 -7 27 6 27 18 0 12 -17 12 -25
-2z"/>
<path d="M13255 3650 c-3 -5 1 -10 9 -10 9 0 16 5 16 10 0 6 -4 10 -9 10 -6 0
-13 -4 -16 -10z"/>
<path d="M11646 3619 c-138 -32 -125 -133 21 -159 88 -16 164 -1 205 41 36 36
35 52 -6 84 -47 36 -101 44 -115 17 -8 -15 -8 -22 2 -25 6 -3 -1 -6 -16 -6
-16 -1 -26 3 -23 8 3 5 -2 18 -12 29 -14 16 -23 18 -56 11z m84 -114 c0 -8 -4
-15 -10 -15 -5 0 -10 7 -10 15 0 8 5 15 10 15 6 0 10 -7 10 -15z"/>
<path d="M13310 3610 c-12 -8 -11 -10 8 -10 12 0 22 5 22 10 0 13 -11 13 -30
0z"/>
<path d="M13365 3570 c-3 -5 1 -10 9 -10 8 0 18 5 21 10 3 6 -1 10 -9 10 -8 0
-18 -4 -21 -10z"/>
<path d="M13410 3530 c-12 -8 -9 -10 13 -10 15 0 27 5 27 10 0 13 -20 13 -40
0z"/>
<path d="M12214 3514 c3 -9 6 -21 6 -27 0 -12 71 -57 89 -57 6 0 11 13 11 28
0 23 -8 32 -45 50 -54 26 -69 28 -61 6z"/>
<path d="M12104 3484 c4 -16 8 -29 9 -30 1 0 16 -10 34 -22 43 -30 63 -29 63
6 0 27 -5 30 -104 71 -5 2 -6 -9 -2 -25z"/>
<path d="M15659 3499 c-42 -4 -120 -19 -175 -33 -54 -14 -104 -26 -112 -26
-21 0 -184 -51 -179 -56 2 -3 30 2 63 11 79 20 81 20 44 -17 -59 -59 -85 -130
-88 -243 -3 -96 -3 -100 19 -110 27 -12 37 -35 16 -35 -9 0 -17 5 -19 12 -3 8
-6 7 -9 -3 -3 -7 3 -70 13 -139 11 -69 19 -142 18 -162 -1 -29 5 -41 23 -53
65 -42 303 -105 489 -130 64 -8 156 -26 205 -40 78 -23 167 -39 271 -50 19 -2
32 1 32 8 0 8 3 8 9 -1 4 -7 6 -25 4 -40 -4 -21 -2 -24 6 -12 6 8 11 25 11 38
0 44 20 21 21 -25 l1 -48 9 40 c15 64 29 66 30 5 1 -56 3 -54 14 13 7 47 25
49 25 3 0 -19 5 -38 10 -41 6 -4 10 16 11 52 1 48 2 53 9 29 5 -15 12 -52 16
-82 3 -30 10 -54 13 -54 4 0 4 30 -1 66 -5 36 -7 76 -5 88 3 21 7 11 39 -112
16 -63 20 -45 7 37 -6 40 -8 75 -5 78 2 3 12 -21 21 -53 21 -73 54 -163 54
-148 1 6 -10 56 -24 110 -14 53 -23 100 -20 102 5 5 5 4 66 -158 57 -150 63
-144 13 12 -24 73 -43 137 -41 142 2 5 20 -30 41 -79 63 -147 92 -206 99 -199
3 3 -3 20 -14 37 -10 18 -19 40 -19 50 0 9 -5 25 -10 35 -16 27 -70 164 -70
176 1 10 23 -31 142 -262 18 -35 34 -59 36 -54 1 5 -17 49 -41 98 -79 158
-113 239 -97 229 6 -3 10 -10 10 -15 0 -9 36 -73 113 -204 56 -94 59 -67 4 31
-57 100 -102 194 -82 168 9 -11 41 -58 71 -105 32 -52 54 -77 54 -65 0 11 -20
50 -43 86 -43 65 -75 129 -43 84 58 -79 79 -105 84 -100 3 3 -5 24 -18 48 -23
41 -23 42 -2 23 l22 -19 0 168 0 167 -40 -36 c-44 -40 -52 -44 -44 -21 4 8 10
15 14 15 5 0 6 9 3 20 -4 15 0 20 16 20 11 0 21 5 21 10 0 16 -52 0 -84 -27
-18 -15 -35 -21 -47 -18 -11 4 -19 2 -19 -4 0 -6 -7 -11 -15 -11 -8 0 -15 4
-15 9 0 5 7 11 15 15 26 10 17 29 -10 22 -31 -8 -31 -3 -2 24 14 14 16 19 6
15 -13 -5 -18 3 -23 38 -4 24 -17 63 -30 87 -20 37 -21 49 -13 91 9 45 12 49
39 49 16 0 31 -6 34 -15 9 -23 24 -18 24 8 0 19 7 15 49 -31 36 -39 50 -48 55
-37 10 27 23 16 36 -30 7 -25 17 -45 22 -45 5 0 8 51 7 114 -1 93 -4 114 -15
109 -8 -3 -14 0 -14 6 0 14 -129 105 -202 142 -32 16 -92 43 -135 59 -43 17
-114 46 -158 65 -101 43 -219 71 -359 84 -121 12 -146 12 -257 0z m280 -88
c15 -10 8 -76 -11 -98 -11 -14 -56 -17 -75 -5 -14 9 -27 76 -19 97 6 17 81 21
105 6z m-304 -261 c56 -33 45 -41 -15 -10 -37 19 -60 40 -43 40 4 0 31 -14 58
-30z m783 -13 c29 1 29 -22 -2 -61 -29 -38 -82 -71 -91 -56 -5 9 -35 114 -35
125 0 2 24 1 53 -2 28 -4 62 -6 75 -6z m-491 -62 c40 -17 41 -22 6 -36 -54
-20 -177 10 -159 39 9 15 114 13 153 -3z m-652 -35 c3 -5 2 -10 -4 -10 -5 0
-13 5 -16 10 -3 6 -2 10 4 10 5 0 13 -4 16 -10z m630 -120 c8 -14 -39 -23 -80
-16 -58 11 -51 26 14 26 33 0 63 -4 66 -10z m796 -191 c-13 -10 -28 -19 -35
-19 -6 0 1 8 17 18 15 9 27 21 27 26 0 5 3 6 8 2 4 -4 -4 -16 -17 -27z m-1
-39 c0 -5 -7 -10 -16 -10 -8 0 -12 5 -9 10 3 6 10 10 16 10 5 0 9 -4 9 -10z"/>
<path d="M10664 3475 c-21 -13 -42 -21 -46 -19 -5 3 -8 -9 -8 -25 0 -37 10
-38 60 -10 23 13 40 31 43 46 6 33 -4 35 -49 8z"/>
<path d="M13460 3490 c-12 -8 -11 -10 8 -10 12 0 22 5 22 10 0 13 -11 13 -30
0z"/>
<path d="M10773 3454 c-32 -19 -43 -32 -43 -50 0 -29 16 -30 50 -4 14 11 31
20 38 20 7 0 12 13 12 30 0 36 -3 36 -57 4z"/>
<path d="M13490 3440 c-12 -8 -9 -10 12 -10 15 0 30 5 33 10 8 13 -25 13 -45
0z"/>
<path d="M13535 3400 c-18 -8 -17 -9 8 -9 15 -1 27 4 27 9 0 12 -8 12 -35 0z"/>
<path d="M9850 3390 c0 -5 15 -10 33 -9 27 0 29 2 12 9 -28 12 -45 12 -45 0z"/>
<path d="M13560 3350 c-11 -7 -7 -10 18 -10 17 0 32 5 32 10 0 13 -30 13 -50
0z"/>
<path d="M9820 3340 c0 -5 12 -10 26 -10 14 0 23 4 19 10 -3 6 -15 10 -26 10
-10 0 -19 -4 -19 -10z"/>
<path d="M13603 3312 c-13 -2 -23 -8 -23 -13 0 -12 47 -12 55 0 7 13 -5 18
-32 13z"/>
<path d="M9795 3299 c-9 -13 12 -19 36 -11 23 9 23 9 -4 14 -15 3 -30 2 -32
-3z"/>
<path d="M10180 3291 c0 -17 25 -31 58 -31 22 0 13 19 -18 35 -37 19 -40 19
-40 -4z"/>
<path d="M14969 3263 c-13 -16 -12 -17 4 -4 16 13 21 21 13 21 -2 0 -10 -8
-17 -17z"/>
<path d="M13610 3260 c-27 -9 -25 -9 32 -14 6 -1 13 5 16 12 4 13 -10 14 -48
2z"/>
<path d="M9775 3250 c-4 -6 7 -10 27 -9 27 0 30 2 13 9 -27 12 -33 12 -40 0z"/>
<path d="M9967 3253 c-17 -16 -4 -50 28 -76 19 -15 38 -42 43 -59 17 -68 45
-33 34 44 -6 47 -14 58 -59 82 -36 18 -37 18 -46 9z"/>
<path d="M13620 3210 c-21 -7 -19 -8 18 -9 23 -1 42 4 42 9 0 12 -24 12 -60 0z"/>
<path d="M9900 3172 c0 -10 12 -25 26 -32 34 -19 49 -46 28 -54 -9 -3 -21 -3
-27 1 -7 4 -8 0 -4 -11 6 -14 3 -17 -8 -12 -9 3 -14 2 -11 -3 3 -5 -1 -11 -9
-15 -9 -3 -15 1 -15 10 0 11 -6 14 -16 10 -9 -3 -18 -6 -20 -6 -13 0 -1 -30
15 -35 25 -8 59 7 99 42 40 37 40 56 3 94 -33 33 -61 38 -61 11z"/>
<path d="M10737 3174 c-9 -9 2 -24 17 -24 7 0 21 7 32 15 18 14 17 14 -12 15
-17 0 -34 -3 -37 -6z"/>
<path d="M13620 3160 c-11 -7 -4 -10 28 -10 23 0 42 5 42 10 0 13 -50 13 -70
0z"/>
<path d="M9674 3148 c-4 -6 5 -21 22 -35 16 -12 31 -18 32 -13 5 15 38 12 52
-5 7 -8 16 -15 21 -15 18 0 8 27 -19 53 -30 29 -94 38 -108 15z"/>
<path d="M13620 3110 c0 -5 18 -10 40 -10 22 0 40 5 40 10 0 6 -18 10 -40 10
-22 0 -40 -4 -40 -10z"/>
<path d="M13625 3060 c3 -5 22 -10 41 -10 19 0 34 5 34 10 0 6 -18 10 -41 10
-24 0 -38 -4 -34 -10z"/>
<path d="M9987 3026 c-15 -12 -50 -30 -77 -40 -47 -17 -66 -36 -36 -36 24 0
100 30 119 48 22 20 41 52 30 52 -4 -1 -21 -11 -36 -24z"/>
<path d="M13616 3011 c15 -15 77 -18 81 -3 3 8 -9 12 -43 12 -29 0 -44 -4 -38
-9z"/>
<path d="M16661 2933 c0 -12 -4 -30 -7 -40 -5 -14 -4 -15 5 -7 7 6 11 24 8 40
-3 21 -4 23 -6 7z"/>
<path d="M16755 2810 c-3 -5 1 -10 10 -10 9 0 13 5 10 10 -3 6 -8 10 -10 10
-2 0 -7 -4 -10 -10z"/>
<path d="M16511 2284 c0 -11 3 -14 6 -6 3 7 2 16 -1 19 -3 4 -6 -2 -5 -13z"/>
<path d="M14786 425 c-3 -8 -1 -17 3 -20 5 -3 11 2 15 10 3 8 1 17 -3 20 -5 3
-11 -2 -15 -10z"/>
<path d="M14738 252 c-16 -15 -28 -33 -28 -40 0 -7 -11 -17 -25 -22 -14 -5
-25 -14 -25 -19 0 -5 -9 -12 -19 -16 -11 -3 -27 -17 -35 -31 -16 -24 -16 -25
27 -68 49 -48 89 -61 157 -50 l43 7 -6 61 c-9 96 -39 207 -56 205 -3 0 -18
-12 -33 -27z"/>
</g>
</svg>
